<?xml version="1.0" encoding="UTF-8"?>
<svg id="Layer_2" data-name="Layer 2" xmlns="http://www.w3.org/2000/svg" xmlns:xlink="http://www.w3.org/1999/xlink" viewBox="0 0 73.44 40.1">
  <defs>
    <style>
      .cls-1 {
        fill: url(#linear-gradient);
      }
    </style>
    <linearGradient id="linear-gradient" x1="0" y1="20.05" x2="73.44" y2="20.05" gradientUnits="userSpaceOnUse">
      <stop offset="0" stop-color="#e70f8d"/>
      <stop offset="1" stop-color="#f68a21"/>
    </linearGradient>
  </defs>
  <g id="Layer_1-2" data-name="Layer 1">
    <path class="cls-1" d="M1.55,28.59c-.16-.09.51-.46,1.57-1.09,2.48-1.45,7.06-4.13,9.1-5.32.98-.62,1.84-.81,2.98-.43,1.62.44,3.52,1.14,5.18,1.56,2.25.62,4.61-1.24,3.51-2.19C20.38,17.93,1.59,1.64,0,0c5.35,1.9,36.46,13.55,40.76,15.12,2,1.08,4.01,3.3,5.91,4.75,1.41,1.18,1.65,1.04,3.24.79,4.55-.7,17.49-2.68,21.03-3.22.38-.04.73-.12.99.12.54,1.06.28,3.6.37,5-.04,1.11.17,2.15-.98,2.15-3.11-.06-16.17-1.08-21.52-1.13-.14.06-.13.18-.07.31.43.81,12.75,9.54,17.03,12.17,2.3,1.44,4.92,2.79,6.67,4.05-3.36-.25-24.08-2.86-33.75-3.96-1.96-.35-2.47.17-4.3-1.51-1.61-1.36-3.44-2.91-5.03-4.26-1.7-1.73-3.41-1.85-5.61-1.71-1.89.05-2.72-.02-5.15-.2-3.76-.18-7.67-.79-11.37-.66-1.94.17-5.54.86-6.64.8h-.03Z"/>
  </g>
</svg>